<svg width="244" height="231" viewBox="0 0 244 231" fill="none" xmlns="http://www.w3.org/2000/svg">
<g id="Mask group">
<mask id="mask0_1_1252" style="mask-type:alpha" maskUnits="userSpaceOnUse" x="0" y="0" width="244" height="231">
<rect id="Rectangle 592" y="0.250366" width="243.418" height="229.943" rx="10" fill="#D9D9D9"/>
</mask>
<g mask="url(#mask0_1_1252)">
<g id="Pattern" opacity="0.3">
<path d="M-49.5305 110.242C-55.8279 119.462 -61.2477 129.407 -65.6331 140.008C-70.0186 150.609 -73.1569 161.352 -75.1154 172.088L-49.5305 110.242Z" fill="url(#paint0_linear_1_1252)"/>
<path d="M-77.4412 192.6L-36.4424 93.4936C-32.859 89.4652 -29.0909 85.6194 -25.1563 81.9641L-77.3409 208.11C-77.6391 202.975 -77.6751 197.799 -77.4412 192.6Z" fill="url(#paint1_linear_1_1252)"/>
<path d="M-76.1557 220.134C-75.6392 223.838 -74.9855 227.514 -74.1977 231.153L-6.15074 66.6637C-9.37034 68.9024 -12.5155 71.2497 -15.5791 73.7025L-76.1557 220.134Z" fill="url(#paint2_linear_1_1252)"/>
<path d="M2.29115 61.1465L-71.8772 240.433C-71.025 243.432 -70.0801 246.402 -69.0444 249.338L10.8446 56.2224C7.94814 57.7842 5.09557 59.4261 2.29115 61.1465Z" fill="url(#paint3_linear_1_1252)"/>
<path d="M18.6423 52.2624L-66.0797 257.061C-65.0198 259.61 -63.8896 262.131 -62.6906 264.62L26.6394 48.6834C23.944 49.8111 21.2774 51.0046 18.6423 52.2624Z" fill="url(#paint4_linear_1_1252)"/>
<path d="M33.9934 45.7957L-59.2822 271.271C-58.0734 273.492 -56.8079 275.685 -55.4868 277.848L41.5842 43.1988C39.0337 44.0079 36.5027 44.8739 33.9934 45.7957Z" fill="url(#paint5_linear_1_1252)"/>
<path d="M48.5994 41.1304L-51.7395 283.679C-50.4144 285.641 -49.0418 287.575 -47.6223 289.479L55.8684 39.3112C53.4314 39.8669 51.0078 40.4736 48.5994 41.1304Z" fill="url(#paint6_linear_1_1252)"/>
<path d="M62.6071 37.9112L-43.5985 294.642C-42.1774 296.387 -40.7151 298.104 -39.2123 299.791L69.6071 36.7424C67.2643 37.0855 64.9304 37.4753 62.6071 37.9112Z" fill="url(#paint7_linear_1_1252)"/>
<path d="M76.1095 35.9133L-34.9524 304.383C-33.4484 305.939 -31.908 307.468 -30.332 308.967L82.8757 35.3101C80.6144 35.4676 78.3585 35.6689 76.1095 35.9133Z" fill="url(#paint8_linear_1_1252)"/>
<path d="M89.1695 34.9853L-25.8635 313.054C-24.2859 314.442 -22.6757 315.801 -21.0336 317.131L95.7259 34.8888C93.5373 34.8798 91.3514 34.9121 89.1695 34.9853Z" fill="url(#paint9_linear_1_1252)"/>
<path d="M101.831 35.0215L-16.3758 320.761C-14.7311 321.994 -13.0569 323.198 -11.3537 324.373L108.195 35.3898C106.072 35.2276 103.951 35.105 101.831 35.0215Z" fill="url(#paint10_linear_1_1252)"/>
<path d="M114.124 35.9464L-6.52051 327.579C-4.8134 328.668 -3.07927 329.727 -1.31861 330.757L120.308 36.7493C118.248 36.4436 116.186 36.1761 114.124 35.9464Z" fill="url(#paint11_linear_1_1252)"/>
<path d="M126.072 37.7054L3.67988 333.564C5.44598 334.515 7.23696 335.436 9.05249 336.329L132.086 38.921C130.084 38.4788 128.079 38.0737 126.072 37.7054Z" fill="url(#paint12_linear_1_1252)"/>
<path d="M137.692 40.2594L14.2092 338.753C16.0318 339.572 17.8776 340.361 19.7462 341.12L143.541 41.8725C141.595 41.2986 139.645 40.761 137.692 40.2594Z" fill="url(#paint13_linear_1_1252)"/>
<path d="M148.993 43.5812L25.056 343.174C25.9011 343.485 26.7505 343.79 27.6043 344.088C28.6523 344.454 29.702 344.81 30.7533 345.155L154.682 45.5816C153.647 45.197 152.606 44.8214 151.558 44.4551C150.704 44.1566 149.849 43.8653 148.993 43.5812Z" fill="url(#paint14_linear_1_1252)"/>
<path d="M159.984 47.6547L36.2138 346.844C38.1621 347.411 40.1149 347.942 42.0715 348.437L165.513 50.0428C163.693 49.2173 161.85 48.421 159.984 47.6547Z" fill="url(#paint15_linear_1_1252)"/>
<path d="M170.661 52.4867L47.6855 349.755C49.6902 350.191 51.6979 350.589 53.7078 350.95L176.025 55.2729C174.262 54.315 172.474 53.386 170.661 52.4867Z" fill="url(#paint16_linear_1_1252)"/>
<path d="M181.015 58.0998L59.4802 351.886C61.5437 352.184 63.6087 352.444 65.6739 352.666L186.208 61.2998C184.504 60.2043 182.773 59.1373 181.015 58.0998Z" fill="url(#paint17_linear_1_1252)"/>
<path d="M191.032 64.5274L71.612 353.201C73.7376 353.356 75.8626 353.471 77.9858 353.546L196.045 68.1632C194.403 66.9227 192.732 65.7104 191.032 64.5274Z" fill="url(#paint18_linear_1_1252)"/>
<path d="M200.693 71.8161L84.0999 353.656C86.2922 353.656 88.4816 353.616 90.6669 353.534L205.512 75.9187C203.938 74.5227 202.332 73.1548 200.693 71.8161Z" fill="url(#paint19_linear_1_1252)"/>
<path d="M209.97 80.0312L96.9711 353.184C99.2364 353.017 101.496 352.807 103.749 352.553L214.579 84.643C213.079 83.0773 211.543 81.5396 209.97 80.0312Z" fill="url(#paint20_linear_1_1252)"/>
<path d="M218.827 89.2628L110.263 351.696C112.61 351.342 114.948 350.942 117.276 350.495L223.201 94.4441C221.784 92.6884 220.326 90.9608 218.827 89.2628Z" fill="url(#paint21_linear_1_1252)"/>
<path d="M227.211 99.6389L124.028 349.063C126.47 348.495 128.899 347.876 131.312 347.207L231.313 105.476C229.993 103.501 228.626 101.555 227.211 99.6389Z" fill="url(#paint22_linear_1_1252)"/>
<path d="M235.044 111.345L138.343 345.1C140.901 344.276 143.438 343.395 145.953 342.457L238.821 117.968C237.619 115.732 236.36 113.523 235.044 111.345Z" fill="url(#paint23_linear_1_1252)"/>
<path d="M242.209 124.667L153.327 339.521C156.031 338.374 158.706 337.161 161.349 335.882L245.574 132.286C244.523 129.717 243.401 127.176 242.209 124.667Z" fill="url(#paint24_linear_1_1252)"/>
<path d="M248.511 140.076L169.174 331.856C172.084 330.266 174.948 328.596 177.763 326.846L251.308 149.066C250.469 146.039 249.536 143.041 248.511 140.076Z" fill="url(#paint25_linear_1_1252)"/>
<path d="M253.586 158.45L186.248 321.225C189.491 318.938 192.657 316.541 195.738 314.036L255.482 169.619C254.989 165.865 254.356 162.14 253.586 158.45Z" fill="url(#paint26_linear_1_1252)"/>
<path d="M256.579 181.856L205.403 305.562C209.405 301.779 213.23 297.797 216.859 293.624L256.51 197.775C256.815 192.44 256.835 187.127 256.579 181.856Z" fill="url(#paint27_linear_1_1252)"/>
<path d="M253.699 219.46L230.432 275.701C235.993 267.22 240.819 258.147 244.795 248.535C248.772 238.923 251.723 229.195 253.699 219.46Z" fill="url(#paint28_linear_1_1252)"/>
</g>
</g>
</g>
<defs>
<linearGradient id="paint0_linear_1_1252" x1="152.437" y1="45.2044" x2="44.8896" y2="352.83" gradientUnits="userSpaceOnUse">
<stop stop-color="#1EC097"/>
<stop offset="1" stop-color="white" stop-opacity="0"/>
</linearGradient>
<linearGradient id="paint1_linear_1_1252" x1="152.437" y1="45.2044" x2="44.8896" y2="352.83" gradientUnits="userSpaceOnUse">
<stop stop-color="#1EC097"/>
<stop offset="1" stop-color="white" stop-opacity="0"/>
</linearGradient>
<linearGradient id="paint2_linear_1_1252" x1="152.437" y1="45.2044" x2="44.8896" y2="352.83" gradientUnits="userSpaceOnUse">
<stop stop-color="#1EC097"/>
<stop offset="1" stop-color="white" stop-opacity="0"/>
</linearGradient>
<linearGradient id="paint3_linear_1_1252" x1="152.437" y1="45.2044" x2="44.8896" y2="352.83" gradientUnits="userSpaceOnUse">
<stop stop-color="#1EC097"/>
<stop offset="1" stop-color="white" stop-opacity="0"/>
</linearGradient>
<linearGradient id="paint4_linear_1_1252" x1="152.437" y1="45.2044" x2="44.8896" y2="352.83" gradientUnits="userSpaceOnUse">
<stop stop-color="#1EC097"/>
<stop offset="1" stop-color="white" stop-opacity="0"/>
</linearGradient>
<linearGradient id="paint5_linear_1_1252" x1="152.437" y1="45.2044" x2="44.8896" y2="352.83" gradientUnits="userSpaceOnUse">
<stop stop-color="#1EC097"/>
<stop offset="1" stop-color="white" stop-opacity="0"/>
</linearGradient>
<linearGradient id="paint6_linear_1_1252" x1="152.437" y1="45.2044" x2="44.8896" y2="352.83" gradientUnits="userSpaceOnUse">
<stop stop-color="#1EC097"/>
<stop offset="1" stop-color="white" stop-opacity="0"/>
</linearGradient>
<linearGradient id="paint7_linear_1_1252" x1="152.437" y1="45.2044" x2="44.8896" y2="352.83" gradientUnits="userSpaceOnUse">
<stop stop-color="#1EC097"/>
<stop offset="1" stop-color="white" stop-opacity="0"/>
</linearGradient>
<linearGradient id="paint8_linear_1_1252" x1="152.437" y1="45.2044" x2="44.8896" y2="352.83" gradientUnits="userSpaceOnUse">
<stop stop-color="#1EC097"/>
<stop offset="1" stop-color="white" stop-opacity="0"/>
</linearGradient>
<linearGradient id="paint9_linear_1_1252" x1="152.437" y1="45.2044" x2="44.8896" y2="352.83" gradientUnits="userSpaceOnUse">
<stop stop-color="#1EC097"/>
<stop offset="1" stop-color="white" stop-opacity="0"/>
</linearGradient>
<linearGradient id="paint10_linear_1_1252" x1="152.437" y1="45.2044" x2="44.8896" y2="352.83" gradientUnits="userSpaceOnUse">
<stop stop-color="#1EC097"/>
<stop offset="1" stop-color="white" stop-opacity="0"/>
</linearGradient>
<linearGradient id="paint11_linear_1_1252" x1="152.437" y1="45.2044" x2="44.8896" y2="352.83" gradientUnits="userSpaceOnUse">
<stop stop-color="#1EC097"/>
<stop offset="1" stop-color="white" stop-opacity="0"/>
</linearGradient>
<linearGradient id="paint12_linear_1_1252" x1="152.437" y1="45.2044" x2="44.8896" y2="352.83" gradientUnits="userSpaceOnUse">
<stop stop-color="#1EC097"/>
<stop offset="1" stop-color="white" stop-opacity="0"/>
</linearGradient>
<linearGradient id="paint13_linear_1_1252" x1="152.437" y1="45.2044" x2="44.8896" y2="352.83" gradientUnits="userSpaceOnUse">
<stop stop-color="#1EC097"/>
<stop offset="1" stop-color="white" stop-opacity="0"/>
</linearGradient>
<linearGradient id="paint14_linear_1_1252" x1="152.437" y1="45.2044" x2="44.8896" y2="352.83" gradientUnits="userSpaceOnUse">
<stop stop-color="#1EC097"/>
<stop offset="1" stop-color="white" stop-opacity="0"/>
</linearGradient>
<linearGradient id="paint15_linear_1_1252" x1="152.437" y1="45.2044" x2="44.8896" y2="352.83" gradientUnits="userSpaceOnUse">
<stop stop-color="#1EC097"/>
<stop offset="1" stop-color="white" stop-opacity="0"/>
</linearGradient>
<linearGradient id="paint16_linear_1_1252" x1="152.437" y1="45.2044" x2="44.8896" y2="352.83" gradientUnits="userSpaceOnUse">
<stop stop-color="#1EC097"/>
<stop offset="1" stop-color="white" stop-opacity="0"/>
</linearGradient>
<linearGradient id="paint17_linear_1_1252" x1="152.437" y1="45.2044" x2="44.8896" y2="352.83" gradientUnits="userSpaceOnUse">
<stop stop-color="#1EC097"/>
<stop offset="1" stop-color="white" stop-opacity="0"/>
</linearGradient>
<linearGradient id="paint18_linear_1_1252" x1="152.437" y1="45.2044" x2="44.8896" y2="352.83" gradientUnits="userSpaceOnUse">
<stop stop-color="#1EC097"/>
<stop offset="1" stop-color="white" stop-opacity="0"/>
</linearGradient>
<linearGradient id="paint19_linear_1_1252" x1="152.437" y1="45.2044" x2="44.8896" y2="352.83" gradientUnits="userSpaceOnUse">
<stop stop-color="#1EC097"/>
<stop offset="1" stop-color="white" stop-opacity="0"/>
</linearGradient>
<linearGradient id="paint20_linear_1_1252" x1="152.437" y1="45.2044" x2="44.8896" y2="352.83" gradientUnits="userSpaceOnUse">
<stop stop-color="#1EC097"/>
<stop offset="1" stop-color="white" stop-opacity="0"/>
</linearGradient>
<linearGradient id="paint21_linear_1_1252" x1="152.437" y1="45.2044" x2="44.8896" y2="352.83" gradientUnits="userSpaceOnUse">
<stop stop-color="#1EC097"/>
<stop offset="1" stop-color="white" stop-opacity="0"/>
</linearGradient>
<linearGradient id="paint22_linear_1_1252" x1="152.437" y1="45.2044" x2="44.8896" y2="352.83" gradientUnits="userSpaceOnUse">
<stop stop-color="#1EC097"/>
<stop offset="1" stop-color="white" stop-opacity="0"/>
</linearGradient>
<linearGradient id="paint23_linear_1_1252" x1="152.437" y1="45.2044" x2="44.8896" y2="352.83" gradientUnits="userSpaceOnUse">
<stop stop-color="#1EC097"/>
<stop offset="1" stop-color="white" stop-opacity="0"/>
</linearGradient>
<linearGradient id="paint24_linear_1_1252" x1="152.437" y1="45.2044" x2="44.8896" y2="352.83" gradientUnits="userSpaceOnUse">
<stop stop-color="#1EC097"/>
<stop offset="1" stop-color="white" stop-opacity="0"/>
</linearGradient>
<linearGradient id="paint25_linear_1_1252" x1="152.437" y1="45.2044" x2="44.8896" y2="352.83" gradientUnits="userSpaceOnUse">
<stop stop-color="#1EC097"/>
<stop offset="1" stop-color="white" stop-opacity="0"/>
</linearGradient>
<linearGradient id="paint26_linear_1_1252" x1="152.437" y1="45.2044" x2="44.8896" y2="352.83" gradientUnits="userSpaceOnUse">
<stop stop-color="#1EC097"/>
<stop offset="1" stop-color="white" stop-opacity="0"/>
</linearGradient>
<linearGradient id="paint27_linear_1_1252" x1="152.437" y1="45.2044" x2="44.8896" y2="352.83" gradientUnits="userSpaceOnUse">
<stop stop-color="#1EC097"/>
<stop offset="1" stop-color="white" stop-opacity="0"/>
</linearGradient>
<linearGradient id="paint28_linear_1_1252" x1="152.437" y1="45.2044" x2="44.8896" y2="352.83" gradientUnits="userSpaceOnUse">
<stop stop-color="#1EC097"/>
<stop offset="1" stop-color="white" stop-opacity="0"/>
</linearGradient>
</defs>
</svg>
