<svg width="241" height="223" viewBox="0 0 241 223" fill="none" xmlns="http://www.w3.org/2000/svg">
<mask id="mask0_1_1274" style="mask-type:alpha" maskUnits="userSpaceOnUse" x="0" y="0" width="241" height="223">
<rect width="240.486" height="222.109" rx="10" transform="matrix(-1 0 0 1 240.744 0.891113)" fill="#D9D9D9"/>
</mask>
<g mask="url(#mask0_1_1274)">
<g opacity="0.3">
<path d="M289.264 105.207C295.485 113.952 300.84 123.383 305.172 133.437C309.505 143.491 312.605 153.68 314.54 163.862L289.264 105.207Z" fill="url(#paint0_linear_1_1274)"/>
<path d="M316.838 183.315L276.333 89.323C272.793 85.5025 269.07 81.8551 265.183 78.3885L316.739 198.025C317.034 193.155 317.069 188.246 316.838 183.315Z" fill="url(#paint1_linear_1_1274)"/>
<path d="M315.568 209.429C315.058 212.942 314.412 216.428 313.634 219.88L246.406 63.8775C249.587 66.0007 252.694 68.2269 255.721 70.5531L315.568 209.429Z" fill="url(#paint2_linear_1_1274)"/>
<path d="M238.066 58.645L311.341 228.681C310.499 231.525 309.566 234.341 308.542 237.126L229.616 53.975C232.477 55.4562 235.295 57.0134 238.066 58.645Z" fill="url(#paint3_linear_1_1274)"/>
<path d="M221.912 50.2193L305.613 244.45C304.566 246.868 303.45 249.259 302.265 251.62L214.011 46.825C216.674 47.8946 219.308 49.0264 221.912 50.2193Z" fill="url(#paint4_linear_1_1274)"/>
<path d="M206.746 44.0863L298.898 257.927C297.704 260.034 296.453 262.114 295.148 264.165L199.246 41.6234C201.766 42.3908 204.267 43.2121 206.746 44.0863Z" fill="url(#paint5_linear_1_1274)"/>
<path d="M192.316 39.6617L291.446 269.695C290.137 271.556 288.781 273.39 287.378 275.196L185.134 37.9364C187.542 38.4635 189.936 39.0388 192.316 39.6617Z" fill="url(#paint6_linear_1_1274)"/>
<path d="M178.477 36.6087L283.403 280.092C281.999 281.747 280.554 283.375 279.07 284.976L171.561 35.5002C173.875 35.8255 176.181 36.1952 178.477 36.6087Z" fill="url(#paint7_linear_1_1274)"/>
<path d="M165.137 34.7138L274.861 289.33C273.375 290.807 271.853 292.256 270.296 293.678L158.452 34.1417C160.686 34.2912 162.915 34.482 165.137 34.7138Z" fill="url(#paint8_linear_1_1274)"/>
<path d="M152.234 33.8337L265.882 297.554C264.323 298.87 262.732 300.16 261.11 301.421L145.757 33.7422C147.919 33.7336 150.078 33.7643 152.234 33.8337Z" fill="url(#paint9_linear_1_1274)"/>
<path d="M139.726 33.8681L256.508 304.864C254.883 306.033 253.229 307.175 251.547 308.29L133.438 34.2174C135.535 34.0635 137.631 33.9472 139.726 33.8681Z" fill="url(#paint10_linear_1_1274)"/>
<path d="M127.58 34.7452L246.772 311.33C245.085 312.362 243.372 313.367 241.632 314.344L121.47 35.5067C123.506 35.2167 125.543 34.963 127.58 34.7452Z" fill="url(#paint11_linear_1_1274)"/>
<path d="M115.776 36.4135L236.694 317.006C234.949 317.907 233.18 318.782 231.386 319.628L109.835 37.5664C111.812 37.1469 113.793 36.7628 115.776 36.4135Z" fill="url(#paint12_linear_1_1274)"/>
<path d="M104.296 38.8357L226.292 321.927C224.491 322.704 222.667 323.452 220.821 324.172L98.5177 40.3656C100.44 39.8212 102.366 39.3114 104.296 38.8357Z" fill="url(#paint13_linear_1_1274)"/>
<path d="M93.1307 41.9861L215.575 326.12C214.74 326.415 213.901 326.704 213.058 326.987C212.022 327.334 210.985 327.672 209.947 327.999L87.5103 43.8833C88.5326 43.5185 89.5615 43.1623 90.5969 42.8148C91.4404 42.5318 92.285 42.2555 93.1307 41.9861Z" fill="url(#paint14_linear_1_1274)"/>
<path d="M82.2723 45.8494L204.552 329.601C202.627 330.139 200.698 330.642 198.765 331.111L76.8103 48.1143C78.6081 47.3313 80.4289 46.5761 82.2723 45.8494Z" fill="url(#paint15_linear_1_1274)"/>
<path d="M71.7238 50.432L193.218 332.362C191.238 332.775 189.254 333.152 187.269 333.495L66.4245 53.0745C68.1664 52.166 69.9329 51.285 71.7238 50.432Z" fill="url(#paint16_linear_1_1274)"/>
<path d="M61.4946 55.7555L181.566 334.382C179.527 334.665 177.487 334.912 175.447 335.123L56.3643 58.7904C58.0478 57.7514 59.758 56.7395 61.4946 55.7555Z" fill="url(#paint17_linear_1_1274)"/>
<path d="M51.5982 61.8514L169.58 335.63C167.48 335.776 165.381 335.885 163.283 335.957L46.6461 65.2997C48.2677 64.1231 49.9185 62.9734 51.5982 61.8514Z" fill="url(#paint18_linear_1_1274)"/>
<path d="M42.0538 68.7641L157.243 336.061C155.077 336.062 152.914 336.023 150.755 335.945L37.2925 72.6549C38.8475 71.331 40.4348 70.0337 42.0538 68.7641Z" fill="url(#paint19_linear_1_1274)"/>
<path d="M32.888 76.5552L144.526 335.614C142.288 335.455 140.056 335.256 137.83 335.015L28.3349 80.9291C29.8168 79.4442 31.3347 77.9858 32.888 76.5552Z" fill="url(#paint20_linear_1_1274)"/>
<path d="M24.1378 85.3105L131.395 334.202C129.076 333.867 126.766 333.487 124.466 333.063L19.8172 90.2244C21.2167 88.5594 22.6571 86.921 24.1378 85.3105Z" fill="url(#paint21_linear_1_1274)"/>
<path d="M15.8551 95.1512L117.795 331.705C115.382 331.167 112.983 330.579 110.599 329.945L11.8027 100.687C13.1063 98.8144 14.4574 96.9686 15.8551 95.1512Z" fill="url(#paint22_linear_1_1274)"/>
<path d="M8.11627 106.254L103.652 327.946C101.126 327.165 98.6191 326.329 96.1343 325.44L4.38512 112.535C5.57261 110.414 6.81666 108.319 8.11627 106.254Z" fill="url(#paint23_linear_1_1274)"/>
<path d="M1.03769 118.888L88.849 322.655C86.1774 321.568 83.5347 320.417 80.9239 319.205L-2.28635 126.114C-1.24812 123.677 -0.139694 121.268 1.03769 118.888Z" fill="url(#paint24_linear_1_1274)"/>
<path d="M-5.18817 133.501L73.193 315.386C70.3185 313.879 67.4885 312.294 64.7073 310.634L-7.95166 142.028C-7.12297 139.157 -6.20119 136.314 -5.18817 133.501Z" fill="url(#paint25_linear_1_1274)"/>
<path d="M-10.2018 150.928L56.3247 305.303C53.1209 303.135 49.9931 300.861 46.9486 298.486L-12.0751 161.521C-11.5887 157.96 -10.9633 154.427 -10.2018 150.928Z" fill="url(#paint26_linear_1_1274)"/>
<path d="M-13.1592 173.126L37.4 290.449C33.4465 286.861 29.6676 283.084 26.0826 279.126L-13.091 188.224C-13.3922 183.164 -13.4122 178.125 -13.1592 173.126Z" fill="url(#paint27_linear_1_1274)"/>
<path d="M-10.3136 208.79L12.6724 262.129C7.17932 254.085 2.41084 245.48 -1.51756 236.364C-5.44596 227.249 -8.36145 218.022 -10.3136 208.79Z" fill="url(#paint28_linear_1_1274)"/>
</g>
</g>
<defs>
<linearGradient id="paint0_linear_1_1274" x1="89.7288" y1="43.5255" x2="188.487" y2="337.793" gradientUnits="userSpaceOnUse">
<stop stop-color="#3CC161"/>
<stop offset="1" stop-color="white" stop-opacity="0"/>
</linearGradient>
<linearGradient id="paint1_linear_1_1274" x1="89.7288" y1="43.5255" x2="188.487" y2="337.793" gradientUnits="userSpaceOnUse">
<stop stop-color="#3CC161"/>
<stop offset="1" stop-color="white" stop-opacity="0"/>
</linearGradient>
<linearGradient id="paint2_linear_1_1274" x1="89.7288" y1="43.5255" x2="188.487" y2="337.793" gradientUnits="userSpaceOnUse">
<stop stop-color="#3CC161"/>
<stop offset="1" stop-color="white" stop-opacity="0"/>
</linearGradient>
<linearGradient id="paint3_linear_1_1274" x1="89.7288" y1="43.5255" x2="188.487" y2="337.793" gradientUnits="userSpaceOnUse">
<stop stop-color="#3CC161"/>
<stop offset="1" stop-color="white" stop-opacity="0"/>
</linearGradient>
<linearGradient id="paint4_linear_1_1274" x1="89.7288" y1="43.5255" x2="188.487" y2="337.793" gradientUnits="userSpaceOnUse">
<stop stop-color="#3CC161"/>
<stop offset="1" stop-color="white" stop-opacity="0"/>
</linearGradient>
<linearGradient id="paint5_linear_1_1274" x1="89.7288" y1="43.5255" x2="188.487" y2="337.793" gradientUnits="userSpaceOnUse">
<stop stop-color="#3CC161"/>
<stop offset="1" stop-color="white" stop-opacity="0"/>
</linearGradient>
<linearGradient id="paint6_linear_1_1274" x1="89.7288" y1="43.5255" x2="188.487" y2="337.793" gradientUnits="userSpaceOnUse">
<stop stop-color="#3CC161"/>
<stop offset="1" stop-color="white" stop-opacity="0"/>
</linearGradient>
<linearGradient id="paint7_linear_1_1274" x1="89.7288" y1="43.5255" x2="188.487" y2="337.793" gradientUnits="userSpaceOnUse">
<stop stop-color="#3CC161"/>
<stop offset="1" stop-color="white" stop-opacity="0"/>
</linearGradient>
<linearGradient id="paint8_linear_1_1274" x1="89.7288" y1="43.5255" x2="188.487" y2="337.793" gradientUnits="userSpaceOnUse">
<stop stop-color="#3CC161"/>
<stop offset="1" stop-color="white" stop-opacity="0"/>
</linearGradient>
<linearGradient id="paint9_linear_1_1274" x1="89.7288" y1="43.5255" x2="188.487" y2="337.793" gradientUnits="userSpaceOnUse">
<stop stop-color="#3CC161"/>
<stop offset="1" stop-color="white" stop-opacity="0"/>
</linearGradient>
<linearGradient id="paint10_linear_1_1274" x1="89.7288" y1="43.5255" x2="188.487" y2="337.793" gradientUnits="userSpaceOnUse">
<stop stop-color="#3CC161"/>
<stop offset="1" stop-color="white" stop-opacity="0"/>
</linearGradient>
<linearGradient id="paint11_linear_1_1274" x1="89.7288" y1="43.5255" x2="188.487" y2="337.793" gradientUnits="userSpaceOnUse">
<stop stop-color="#3CC161"/>
<stop offset="1" stop-color="white" stop-opacity="0"/>
</linearGradient>
<linearGradient id="paint12_linear_1_1274" x1="89.7288" y1="43.5255" x2="188.487" y2="337.793" gradientUnits="userSpaceOnUse">
<stop stop-color="#3CC161"/>
<stop offset="1" stop-color="white" stop-opacity="0"/>
</linearGradient>
<linearGradient id="paint13_linear_1_1274" x1="89.7288" y1="43.5255" x2="188.487" y2="337.793" gradientUnits="userSpaceOnUse">
<stop stop-color="#3CC161"/>
<stop offset="1" stop-color="white" stop-opacity="0"/>
</linearGradient>
<linearGradient id="paint14_linear_1_1274" x1="89.7288" y1="43.5255" x2="188.487" y2="337.793" gradientUnits="userSpaceOnUse">
<stop stop-color="#3CC161"/>
<stop offset="1" stop-color="white" stop-opacity="0"/>
</linearGradient>
<linearGradient id="paint15_linear_1_1274" x1="89.7288" y1="43.5255" x2="188.487" y2="337.793" gradientUnits="userSpaceOnUse">
<stop stop-color="#3CC161"/>
<stop offset="1" stop-color="white" stop-opacity="0"/>
</linearGradient>
<linearGradient id="paint16_linear_1_1274" x1="89.7288" y1="43.5255" x2="188.487" y2="337.793" gradientUnits="userSpaceOnUse">
<stop stop-color="#3CC161"/>
<stop offset="1" stop-color="white" stop-opacity="0"/>
</linearGradient>
<linearGradient id="paint17_linear_1_1274" x1="89.7288" y1="43.5255" x2="188.487" y2="337.793" gradientUnits="userSpaceOnUse">
<stop stop-color="#3CC161"/>
<stop offset="1" stop-color="white" stop-opacity="0"/>
</linearGradient>
<linearGradient id="paint18_linear_1_1274" x1="89.7288" y1="43.5255" x2="188.487" y2="337.793" gradientUnits="userSpaceOnUse">
<stop stop-color="#3CC161"/>
<stop offset="1" stop-color="white" stop-opacity="0"/>
</linearGradient>
<linearGradient id="paint19_linear_1_1274" x1="89.7288" y1="43.5255" x2="188.487" y2="337.793" gradientUnits="userSpaceOnUse">
<stop stop-color="#3CC161"/>
<stop offset="1" stop-color="white" stop-opacity="0"/>
</linearGradient>
<linearGradient id="paint20_linear_1_1274" x1="89.7288" y1="43.5255" x2="188.487" y2="337.793" gradientUnits="userSpaceOnUse">
<stop stop-color="#3CC161"/>
<stop offset="1" stop-color="white" stop-opacity="0"/>
</linearGradient>
<linearGradient id="paint21_linear_1_1274" x1="89.7288" y1="43.5255" x2="188.487" y2="337.793" gradientUnits="userSpaceOnUse">
<stop stop-color="#3CC161"/>
<stop offset="1" stop-color="white" stop-opacity="0"/>
</linearGradient>
<linearGradient id="paint22_linear_1_1274" x1="89.7288" y1="43.5255" x2="188.487" y2="337.793" gradientUnits="userSpaceOnUse">
<stop stop-color="#3CC161"/>
<stop offset="1" stop-color="white" stop-opacity="0"/>
</linearGradient>
<linearGradient id="paint23_linear_1_1274" x1="89.7288" y1="43.5255" x2="188.487" y2="337.793" gradientUnits="userSpaceOnUse">
<stop stop-color="#3CC161"/>
<stop offset="1" stop-color="white" stop-opacity="0"/>
</linearGradient>
<linearGradient id="paint24_linear_1_1274" x1="89.7288" y1="43.5255" x2="188.487" y2="337.793" gradientUnits="userSpaceOnUse">
<stop stop-color="#3CC161"/>
<stop offset="1" stop-color="white" stop-opacity="0"/>
</linearGradient>
<linearGradient id="paint25_linear_1_1274" x1="89.7288" y1="43.5255" x2="188.487" y2="337.793" gradientUnits="userSpaceOnUse">
<stop stop-color="#3CC161"/>
<stop offset="1" stop-color="white" stop-opacity="0"/>
</linearGradient>
<linearGradient id="paint26_linear_1_1274" x1="89.7288" y1="43.5255" x2="188.487" y2="337.793" gradientUnits="userSpaceOnUse">
<stop stop-color="#3CC161"/>
<stop offset="1" stop-color="white" stop-opacity="0"/>
</linearGradient>
<linearGradient id="paint27_linear_1_1274" x1="89.7288" y1="43.5255" x2="188.487" y2="337.793" gradientUnits="userSpaceOnUse">
<stop stop-color="#3CC161"/>
<stop offset="1" stop-color="white" stop-opacity="0"/>
</linearGradient>
<linearGradient id="paint28_linear_1_1274" x1="89.7288" y1="43.5255" x2="188.487" y2="337.793" gradientUnits="userSpaceOnUse">
<stop stop-color="#3CC161"/>
<stop offset="1" stop-color="white" stop-opacity="0"/>
</linearGradient>
</defs>
</svg>
