<svg width="580" height="497" viewBox="0 0 580 497" fill="none" xmlns="http://www.w3.org/2000/svg">
<path d="M430.218 173.162C361.729 164.723 296.444 205.157 231.228 232.526C208.818 241.936 185.041 249.95 161.723 244.984C124.435 237.043 96.4866 197.629 78.9516 155.968C61.4166 114.308 51.003 68.1788 31.0161 28.2668C26.7884 19.8198 21.9173 11.5727 16.4795 3.99718C10.8867 -3.79424 0.00012207 0.61958 0.00012207 10.2105V489.569C0.00012207 495.644 4.92499 500.569 11.0001 500.569H574.665C579.919 500.569 584.451 496.857 585.382 491.686C597.284 425.529 596.759 355.796 572.852 295.739C546.086 228.531 490.277 180.557 430.218 173.162Z" fill="#EBC2D1"/>
</svg>
