<svg width="574" height="446" viewBox="0 0 574 446" fill="none" xmlns="http://www.w3.org/2000/svg">
<g opacity="0.3">
<path d="M689.811 168.633C704.66 189.224 717.441 211.433 727.782 235.107C738.123 258.781 745.524 282.771 750.142 306.748L689.811 168.633Z" fill="url(#paint0_linear_1_834)"/>
<path d="M755.626 352.554L658.948 131.23C650.498 122.234 641.612 113.646 632.334 105.483L755.39 387.191C756.093 375.724 756.178 364.165 755.626 352.554Z" fill="url(#paint1_linear_1_834)"/>
<path d="M752.595 414.044C751.377 422.316 749.836 430.524 747.978 438.652L587.518 71.3141C595.11 76.3135 602.526 81.5555 609.75 87.033L752.595 414.044Z" fill="url(#paint2_linear_1_834)"/>
<path d="M567.611 58.9929L742.506 459.376C740.496 466.073 738.268 472.705 735.826 479.262L547.441 47.9966C554.271 51.4843 560.998 55.1511 567.611 58.9929Z" fill="url(#paint3_linear_1_834)"/>
<path d="M529.053 39.1529L728.835 496.508C726.336 502.202 723.671 507.832 720.843 513.391L510.196 31.1604C516.552 33.6789 522.84 36.344 529.053 39.1529Z" fill="url(#paint4_linear_1_834)"/>
<path d="M492.854 24.7117L712.806 528.242C709.955 533.203 706.971 538.101 703.856 542.931L474.954 18.9122C480.969 20.7191 486.937 22.653 492.854 24.7117Z" fill="url(#paint5_linear_1_834)"/>
<path d="M458.412 14.2931L695.02 555.953C691.895 560.334 688.658 564.653 685.311 568.905L441.271 10.2305C447.018 11.4715 452.733 12.8263 458.412 14.2931Z" fill="url(#paint6_linear_1_834)"/>
<path d="M425.381 7.10402L675.823 580.434C672.471 584.331 669.023 588.165 665.479 591.934L408.874 4.49385C414.399 5.25996 419.902 6.13051 425.381 7.10402Z" fill="url(#paint7_linear_1_834)"/>
<path d="M393.541 2.64218L655.434 602.188C651.888 605.664 648.255 609.077 644.539 612.425L377.586 1.29508C382.918 1.64696 388.238 2.09643 393.541 2.64218Z" fill="url(#paint8_linear_1_834)"/>
<path d="M362.744 0.569745L634.002 621.553C630.282 624.652 626.485 627.687 622.613 630.658L347.284 0.354328C352.445 0.334123 357.599 0.406311 362.744 0.569745Z" fill="url(#paint9_linear_1_834)"/>
<path d="M332.889 0.650676L611.629 638.764C607.751 641.517 603.803 644.207 599.787 646.831L317.882 1.47322C322.886 1.11096 327.889 0.837129 332.889 0.650676Z" fill="url(#paint10_linear_1_834)"/>
<path d="M303.9 2.71614L588.389 653.991C584.364 656.421 580.275 658.787 576.123 661.088L289.317 4.5091C294.175 3.82639 299.037 3.22906 303.9 2.71614Z" fill="url(#paint11_linear_1_834)"/>
<path d="M275.725 6.64435L564.336 667.355C560.172 669.478 555.948 671.537 551.667 673.53L261.544 9.35912C266.264 8.37146 270.992 7.46684 275.725 6.64435Z" fill="url(#paint12_linear_1_834)"/>
<path d="M248.325 12.348L539.507 678.944C535.209 680.772 530.857 682.535 526.45 684.231L234.533 15.9504C239.12 14.6686 243.718 13.4681 248.325 12.348Z" fill="url(#paint13_linear_1_834)"/>
<path d="M221.675 19.7662L513.929 688.818C511.937 689.511 509.934 690.191 507.92 690.858C505.449 691.676 502.974 692.47 500.495 693.24L208.26 24.2335C210.7 23.3746 213.156 22.5359 215.627 21.7177C217.64 21.0511 219.656 20.4006 221.675 19.7662Z" fill="url(#paint14_linear_1_834)"/>
<path d="M195.757 28.8631L487.618 697.013C483.024 698.279 478.419 699.465 473.805 700.569L182.721 34.1962C187.012 32.3527 191.358 30.5743 195.757 28.8631Z" fill="url(#paint15_linear_1_834)"/>
<path d="M170.58 39.6539L460.567 703.514C455.84 704.486 451.106 705.375 446.366 706.182L157.932 45.876C162.089 43.737 166.306 41.6623 170.58 39.6539Z" fill="url(#paint16_linear_1_834)"/>
<path d="M146.165 52.1891L432.754 708.271C427.888 708.938 423.019 709.519 418.149 710.015L133.92 59.3354C137.938 56.8889 142.02 54.5061 146.165 52.1891Z" fill="url(#paint17_linear_1_834)"/>
<path d="M122.544 66.5432L404.146 711.21C399.134 711.555 394.123 711.811 389.116 711.98L110.724 74.6627C114.594 71.8923 118.535 69.1851 122.544 66.5432Z" fill="url(#paint18_linear_1_834)"/>
<path d="M99.7629 82.8205L374.699 712.225C369.529 712.226 364.367 712.135 359.214 711.953L88.3985 91.9822C92.11 88.8647 95.8985 85.8099 99.7629 82.8205Z" fill="url(#paint19_linear_1_834)"/>
<path d="M77.8857 101.166L344.348 711.171C339.006 710.799 333.677 710.328 328.365 709.761L67.0182 111.465C70.5551 107.969 74.178 104.535 77.8857 101.166Z" fill="url(#paint20_linear_1_834)"/>
<path d="M57.0003 121.782L313.005 707.847C307.469 707.058 301.956 706.164 296.467 705.166L46.6879 133.353C50.0282 129.432 53.4662 125.574 57.0003 121.782Z" fill="url(#paint21_linear_1_834)"/>
<path d="M37.2309 144.954L280.545 701.968C274.786 700.7 269.059 699.317 263.368 697.822L27.5585 157.989C30.67 153.58 33.8948 149.234 37.2309 144.954Z" fill="url(#paint22_linear_1_834)"/>
<path d="M18.7597 171.097L246.788 693.117C240.758 691.277 234.775 689.309 228.844 687.216L9.85404 185.888C12.6884 180.892 15.6577 175.961 18.7597 171.097Z" fill="url(#paint23_linear_1_834)"/>
<path d="M1.8643 200.848L211.455 680.659C205.078 678.097 198.771 675.388 192.539 672.533L-6.06962 217.863C-3.59154 212.125 -0.945925 206.451 1.8643 200.848Z" fill="url(#paint24_linear_1_834)"/>
<path d="M-12.9958 235.258L174.087 663.541C167.226 659.992 160.471 656.261 153.833 652.353L-19.5918 255.336C-17.6138 248.575 -15.4137 241.879 -12.9958 235.258Z" fill="url(#paint25_linear_1_834)"/>
<path d="M-24.9625 276.291L133.825 639.8C126.178 634.694 118.713 629.34 111.446 623.746L-29.4337 301.234C-28.2729 292.85 -26.78 284.531 -24.9625 276.291Z" fill="url(#paint26_linear_1_834)"/>
<path d="M-32.0214 328.561L88.6549 604.822C79.2186 596.374 70.199 587.481 61.6422 578.161L-31.8584 364.112C-32.5774 352.197 -32.6251 340.333 -32.0214 328.561Z" fill="url(#paint27_linear_1_834)"/>
<path d="M-25.2294 412.538L29.6345 538.137C16.5233 519.195 5.14176 498.934 -4.23467 477.469C-13.6111 456.004 -20.5699 434.279 -25.2294 412.538Z" fill="url(#paint28_linear_1_834)"/>
</g>
<defs>
<linearGradient id="paint0_linear_1_834" x1="213.555" y1="23.391" x2="443.593" y2="718.183" gradientUnits="userSpaceOnUse">
<stop stop-color="#3CC161"/>
<stop offset="1" stop-color="white" stop-opacity="0"/>
</linearGradient>
<linearGradient id="paint1_linear_1_834" x1="213.555" y1="23.391" x2="443.593" y2="718.183" gradientUnits="userSpaceOnUse">
<stop stop-color="#3CC161"/>
<stop offset="1" stop-color="white" stop-opacity="0"/>
</linearGradient>
<linearGradient id="paint2_linear_1_834" x1="213.555" y1="23.391" x2="443.593" y2="718.183" gradientUnits="userSpaceOnUse">
<stop stop-color="#3CC161"/>
<stop offset="1" stop-color="white" stop-opacity="0"/>
</linearGradient>
<linearGradient id="paint3_linear_1_834" x1="213.555" y1="23.391" x2="443.593" y2="718.183" gradientUnits="userSpaceOnUse">
<stop stop-color="#3CC161"/>
<stop offset="1" stop-color="white" stop-opacity="0"/>
</linearGradient>
<linearGradient id="paint4_linear_1_834" x1="213.555" y1="23.391" x2="443.593" y2="718.183" gradientUnits="userSpaceOnUse">
<stop stop-color="#3CC161"/>
<stop offset="1" stop-color="white" stop-opacity="0"/>
</linearGradient>
<linearGradient id="paint5_linear_1_834" x1="213.555" y1="23.391" x2="443.593" y2="718.183" gradientUnits="userSpaceOnUse">
<stop stop-color="#3CC161"/>
<stop offset="1" stop-color="white" stop-opacity="0"/>
</linearGradient>
<linearGradient id="paint6_linear_1_834" x1="213.555" y1="23.391" x2="443.593" y2="718.183" gradientUnits="userSpaceOnUse">
<stop stop-color="#3CC161"/>
<stop offset="1" stop-color="white" stop-opacity="0"/>
</linearGradient>
<linearGradient id="paint7_linear_1_834" x1="213.555" y1="23.391" x2="443.593" y2="718.183" gradientUnits="userSpaceOnUse">
<stop stop-color="#3CC161"/>
<stop offset="1" stop-color="white" stop-opacity="0"/>
</linearGradient>
<linearGradient id="paint8_linear_1_834" x1="213.555" y1="23.391" x2="443.593" y2="718.183" gradientUnits="userSpaceOnUse">
<stop stop-color="#3CC161"/>
<stop offset="1" stop-color="white" stop-opacity="0"/>
</linearGradient>
<linearGradient id="paint9_linear_1_834" x1="213.555" y1="23.391" x2="443.593" y2="718.183" gradientUnits="userSpaceOnUse">
<stop stop-color="#3CC161"/>
<stop offset="1" stop-color="white" stop-opacity="0"/>
</linearGradient>
<linearGradient id="paint10_linear_1_834" x1="213.555" y1="23.391" x2="443.593" y2="718.183" gradientUnits="userSpaceOnUse">
<stop stop-color="#3CC161"/>
<stop offset="1" stop-color="white" stop-opacity="0"/>
</linearGradient>
<linearGradient id="paint11_linear_1_834" x1="213.555" y1="23.391" x2="443.593" y2="718.183" gradientUnits="userSpaceOnUse">
<stop stop-color="#3CC161"/>
<stop offset="1" stop-color="white" stop-opacity="0"/>
</linearGradient>
<linearGradient id="paint12_linear_1_834" x1="213.555" y1="23.391" x2="443.593" y2="718.183" gradientUnits="userSpaceOnUse">
<stop stop-color="#3CC161"/>
<stop offset="1" stop-color="white" stop-opacity="0"/>
</linearGradient>
<linearGradient id="paint13_linear_1_834" x1="213.555" y1="23.391" x2="443.593" y2="718.183" gradientUnits="userSpaceOnUse">
<stop stop-color="#3CC161"/>
<stop offset="1" stop-color="white" stop-opacity="0"/>
</linearGradient>
<linearGradient id="paint14_linear_1_834" x1="213.555" y1="23.391" x2="443.593" y2="718.183" gradientUnits="userSpaceOnUse">
<stop stop-color="#3CC161"/>
<stop offset="1" stop-color="white" stop-opacity="0"/>
</linearGradient>
<linearGradient id="paint15_linear_1_834" x1="213.555" y1="23.391" x2="443.593" y2="718.183" gradientUnits="userSpaceOnUse">
<stop stop-color="#3CC161"/>
<stop offset="1" stop-color="white" stop-opacity="0"/>
</linearGradient>
<linearGradient id="paint16_linear_1_834" x1="213.555" y1="23.391" x2="443.593" y2="718.183" gradientUnits="userSpaceOnUse">
<stop stop-color="#3CC161"/>
<stop offset="1" stop-color="white" stop-opacity="0"/>
</linearGradient>
<linearGradient id="paint17_linear_1_834" x1="213.555" y1="23.391" x2="443.593" y2="718.183" gradientUnits="userSpaceOnUse">
<stop stop-color="#3CC161"/>
<stop offset="1" stop-color="white" stop-opacity="0"/>
</linearGradient>
<linearGradient id="paint18_linear_1_834" x1="213.555" y1="23.391" x2="443.593" y2="718.183" gradientUnits="userSpaceOnUse">
<stop stop-color="#3CC161"/>
<stop offset="1" stop-color="white" stop-opacity="0"/>
</linearGradient>
<linearGradient id="paint19_linear_1_834" x1="213.555" y1="23.391" x2="443.593" y2="718.183" gradientUnits="userSpaceOnUse">
<stop stop-color="#3CC161"/>
<stop offset="1" stop-color="white" stop-opacity="0"/>
</linearGradient>
<linearGradient id="paint20_linear_1_834" x1="213.555" y1="23.391" x2="443.593" y2="718.183" gradientUnits="userSpaceOnUse">
<stop stop-color="#3CC161"/>
<stop offset="1" stop-color="white" stop-opacity="0"/>
</linearGradient>
<linearGradient id="paint21_linear_1_834" x1="213.555" y1="23.391" x2="443.593" y2="718.183" gradientUnits="userSpaceOnUse">
<stop stop-color="#3CC161"/>
<stop offset="1" stop-color="white" stop-opacity="0"/>
</linearGradient>
<linearGradient id="paint22_linear_1_834" x1="213.555" y1="23.391" x2="443.593" y2="718.183" gradientUnits="userSpaceOnUse">
<stop stop-color="#3CC161"/>
<stop offset="1" stop-color="white" stop-opacity="0"/>
</linearGradient>
<linearGradient id="paint23_linear_1_834" x1="213.555" y1="23.391" x2="443.593" y2="718.183" gradientUnits="userSpaceOnUse">
<stop stop-color="#3CC161"/>
<stop offset="1" stop-color="white" stop-opacity="0"/>
</linearGradient>
<linearGradient id="paint24_linear_1_834" x1="213.555" y1="23.391" x2="443.593" y2="718.183" gradientUnits="userSpaceOnUse">
<stop stop-color="#3CC161"/>
<stop offset="1" stop-color="white" stop-opacity="0"/>
</linearGradient>
<linearGradient id="paint25_linear_1_834" x1="213.555" y1="23.391" x2="443.593" y2="718.183" gradientUnits="userSpaceOnUse">
<stop stop-color="#3CC161"/>
<stop offset="1" stop-color="white" stop-opacity="0"/>
</linearGradient>
<linearGradient id="paint26_linear_1_834" x1="213.555" y1="23.391" x2="443.593" y2="718.183" gradientUnits="userSpaceOnUse">
<stop stop-color="#3CC161"/>
<stop offset="1" stop-color="white" stop-opacity="0"/>
</linearGradient>
<linearGradient id="paint27_linear_1_834" x1="213.555" y1="23.391" x2="443.593" y2="718.183" gradientUnits="userSpaceOnUse">
<stop stop-color="#3CC161"/>
<stop offset="1" stop-color="white" stop-opacity="0"/>
</linearGradient>
<linearGradient id="paint28_linear_1_834" x1="213.555" y1="23.391" x2="443.593" y2="718.183" gradientUnits="userSpaceOnUse">
<stop stop-color="#3CC161"/>
<stop offset="1" stop-color="white" stop-opacity="0"/>
</linearGradient>
</defs>
</svg>
