<svg width="580" height="430" viewBox="0 0 580 430" fill="none" xmlns="http://www.w3.org/2000/svg">
<path d="M-232.181 155.6C-102.483 148.151 21.2711 181.941 144.862 204.711C187.331 212.54 232.386 219.184 276.538 214.883C347.141 208.005 399.975 174.625 433.08 139.401C466.184 104.177 485.79 65.2181 523.543 31.457C535.533 20.7291 550.271 10.3744 567.269 1.7405C574.247 -1.80372 582.203 3.46823 582.227 11.2961L583.465 418.68C583.483 424.755 578.573 429.693 572.498 429.708L-514.895 432.481C-519.245 432.492 -523.218 429.944 -524.876 425.921C-547.968 369.909 -547.388 310.726 -502.019 259.679C-451.495 202.862 -345.914 162.127 -232.181 155.6Z" fill="#D8C0FF"/>
</svg>
