<svg width="580" height="460" viewBox="0 0 580 460" fill="none" xmlns="http://www.w3.org/2000/svg">
<g opacity="0.3">
<path d="M-118.018 177.784C-133.023 199.477 -145.937 222.875 -156.386 247.816C-166.836 272.757 -174.314 298.032 -178.98 323.293L-118.018 177.784Z" fill="url(#paint0_linear_1_865)"/>
<path d="M-184.522 371.551L-86.8328 138.379C-78.2943 128.901 -69.3159 119.852 -59.9408 111.253L-184.283 408.043C-184.993 395.962 -185.079 383.784 -184.522 371.551Z" fill="url(#paint1_linear_1_865)"/>
<path d="M-181.459 436.333C-180.228 445.049 -178.671 453.696 -176.794 462.259L-14.6558 75.2544C-22.3273 80.5215 -29.8213 86.0442 -37.1209 91.8149L-181.459 436.333Z" fill="url(#paint2_linear_1_865)"/>
<path d="M5.45899 62.2736L-171.264 484.092C-169.234 491.148 -166.982 498.134 -164.515 505.043L25.8397 50.6886C18.9381 54.363 12.1412 58.2261 5.45899 62.2736Z" fill="url(#paint3_linear_1_865)"/>
<path d="M44.4195 41.3715L-157.451 523.213C-154.925 529.211 -152.232 535.142 -149.375 540.999L63.4743 32.9511C57.052 35.6044 50.6981 38.4122 44.4195 41.3715Z" fill="url(#paint4_linear_1_865)"/>
<path d="M80.9971 26.1571L-141.254 556.645C-138.374 561.872 -135.358 567.032 -132.21 572.12L99.0839 20.0471C93.0067 21.9508 86.9759 23.9882 80.9971 26.1571Z" fill="url(#paint5_linear_1_865)"/>
<path d="M115.799 15.1807L-123.282 585.839C-120.124 590.456 -116.854 595.005 -113.471 599.485L133.119 10.9006C127.313 12.2081 121.538 13.6354 115.799 15.1807Z" fill="url(#paint6_linear_1_865)"/>
<path d="M149.176 7.60676L-103.884 611.631C-100.498 615.737 -97.0133 619.777 -93.4326 623.747L165.855 4.85685C160.273 5.66397 154.712 6.58113 149.176 7.60676Z" fill="url(#paint7_linear_1_865)"/>
<path d="M181.349 2.90604L-83.2824 634.55C-79.6987 638.212 -76.0286 641.808 -72.2734 645.335L197.47 1.48683C192.082 1.85755 186.707 2.33107 181.349 2.90604Z" fill="url(#paint8_linear_1_865)"/>
<path d="M212.467 0.722647L-61.626 654.952C-57.8669 658.216 -54.0304 661.415 -50.1177 664.544L228.089 0.495707C222.874 0.474421 217.666 0.550468 212.467 0.722647Z" fill="url(#paint9_linear_1_865)"/>
<path d="M242.635 0.80791L-39.0194 673.084C-35.1004 675.985 -31.1112 678.818 -27.053 681.583L257.799 1.6745C252.742 1.29285 247.686 1.00435 242.635 0.80791Z" fill="url(#paint10_linear_1_865)"/>
<path d="M271.926 2.98395L-15.5368 689.126C-11.4692 691.686 -7.33728 694.179 -3.14206 696.603L286.662 4.87291C281.753 4.15365 276.84 3.52433 271.926 2.98395Z" fill="url(#paint11_linear_1_865)"/>
<path d="M300.396 7.12246L8.768 703.206C12.9761 705.443 17.2435 707.612 21.5695 709.711L314.725 9.98258C309.955 8.94205 305.178 7.989 300.396 7.12246Z" fill="url(#paint12_linear_1_865)"/>
<path d="M328.082 13.1315L33.8564 715.415C38.1992 717.341 42.5974 719.198 47.0498 720.985L342.019 16.9267C337.384 15.5763 332.737 14.3115 328.082 13.1315Z" fill="url(#paint13_linear_1_865)"/>
<path d="M355.011 20.9468L59.7016 725.817C61.7151 726.548 63.739 727.265 65.7734 727.967C68.2705 728.829 70.7716 729.666 73.2766 730.476L368.566 25.6533C366.101 24.7484 363.619 23.8648 361.122 23.0028C359.088 22.3005 357.051 21.6152 355.011 20.9468Z" fill="url(#paint14_linear_1_865)"/>
<path d="M381.199 30.5308L86.2877 734.451C90.9299 735.786 95.583 737.035 100.245 738.198L394.372 36.1494C390.037 34.2071 385.645 32.3336 381.199 30.5308Z" fill="url(#paint15_linear_1_865)"/>
<path d="M406.64 41.8992L113.622 741.301C118.398 742.325 123.182 743.261 127.971 744.111L419.421 48.4545C415.22 46.2009 410.959 44.0152 406.64 41.8992Z" fill="url(#paint16_linear_1_865)"/>
<path d="M431.31 55.1055L141.725 746.313C146.642 747.015 151.562 747.627 156.483 748.15L443.684 62.6344C439.623 60.057 435.499 57.5466 431.31 55.1055Z" fill="url(#paint17_linear_1_865)"/>
<path d="M455.179 70.2281L170.632 749.408C175.697 749.772 180.76 750.042 185.819 750.22L467.122 78.7824C463.211 75.8637 459.229 73.0115 455.179 70.2281Z" fill="url(#paint18_linear_1_865)"/>
<path d="M478.197 87.3768L200.387 750.478C205.611 750.479 210.828 750.383 216.035 750.191L489.681 97.0291C485.93 93.7447 482.102 90.5264 478.197 87.3768Z" fill="url(#paint19_linear_1_865)"/>
<path d="M500.303 106.705L231.056 749.368C236.454 748.975 241.838 748.48 247.205 747.883L511.284 117.555C507.71 113.872 504.05 110.254 500.303 106.705Z" fill="url(#paint20_linear_1_865)"/>
<path d="M521.407 128.425L262.726 745.866C268.32 745.034 273.891 744.092 279.437 743.041L531.827 140.615C528.452 136.484 524.978 132.42 521.407 128.425Z" fill="url(#paint21_linear_1_865)"/>
<path d="M541.383 152.837L295.525 739.672C301.345 738.336 307.132 736.879 312.882 735.304L551.157 166.57C548.012 161.925 544.754 157.346 541.383 152.837Z" fill="url(#paint22_linear_1_865)"/>
<path d="M560.047 180.38L329.635 730.347C335.729 728.409 341.774 726.335 347.767 724.13L569.046 195.962C566.182 190.699 563.182 185.503 560.047 180.38Z" fill="url(#paint23_linear_1_865)"/>
<path d="M577.119 211.723L365.338 717.222C371.781 714.523 378.155 711.669 384.451 708.661L585.136 229.649C582.632 223.604 579.959 217.626 577.119 211.723Z" fill="url(#paint24_linear_1_865)"/>
<path d="M592.135 247.975L403.097 699.188C410.029 695.448 416.854 691.517 423.562 687.4L598.8 269.128C596.801 262.005 594.578 254.951 592.135 247.975Z" fill="url(#paint25_linear_1_865)"/>
<path d="M604.227 291.205L443.779 674.175C451.506 668.796 459.05 663.156 466.392 657.262L608.744 317.484C607.571 308.651 606.063 299.886 604.227 291.205Z" fill="url(#paint26_linear_1_865)"/>
<path d="M611.359 346.274L489.421 637.325C498.956 628.425 508.07 619.055 516.716 609.236L611.194 383.728C611.921 371.175 611.969 358.676 611.359 346.274Z" fill="url(#paint27_linear_1_865)"/>
<path d="M604.496 434.747L549.059 567.07C562.307 547.114 573.808 525.768 583.282 503.154C592.756 480.539 599.788 457.651 604.496 434.747Z" fill="url(#paint28_linear_1_865)"/>
</g>
<defs>
<linearGradient id="paint0_linear_1_865" x1="363.216" y1="24.7657" x2="112.684" y2="750.511" gradientUnits="userSpaceOnUse">
<stop stop-color="#1EC097"/>
<stop offset="1" stop-color="white" stop-opacity="0"/>
</linearGradient>
<linearGradient id="paint1_linear_1_865" x1="363.216" y1="24.7657" x2="112.684" y2="750.511" gradientUnits="userSpaceOnUse">
<stop stop-color="#1EC097"/>
<stop offset="1" stop-color="white" stop-opacity="0"/>
</linearGradient>
<linearGradient id="paint2_linear_1_865" x1="363.216" y1="24.7657" x2="112.684" y2="750.511" gradientUnits="userSpaceOnUse">
<stop stop-color="#1EC097"/>
<stop offset="1" stop-color="white" stop-opacity="0"/>
</linearGradient>
<linearGradient id="paint3_linear_1_865" x1="363.216" y1="24.7657" x2="112.684" y2="750.511" gradientUnits="userSpaceOnUse">
<stop stop-color="#1EC097"/>
<stop offset="1" stop-color="white" stop-opacity="0"/>
</linearGradient>
<linearGradient id="paint4_linear_1_865" x1="363.216" y1="24.7657" x2="112.684" y2="750.511" gradientUnits="userSpaceOnUse">
<stop stop-color="#1EC097"/>
<stop offset="1" stop-color="white" stop-opacity="0"/>
</linearGradient>
<linearGradient id="paint5_linear_1_865" x1="363.216" y1="24.7657" x2="112.684" y2="750.511" gradientUnits="userSpaceOnUse">
<stop stop-color="#1EC097"/>
<stop offset="1" stop-color="white" stop-opacity="0"/>
</linearGradient>
<linearGradient id="paint6_linear_1_865" x1="363.216" y1="24.7657" x2="112.684" y2="750.511" gradientUnits="userSpaceOnUse">
<stop stop-color="#1EC097"/>
<stop offset="1" stop-color="white" stop-opacity="0"/>
</linearGradient>
<linearGradient id="paint7_linear_1_865" x1="363.216" y1="24.7657" x2="112.684" y2="750.511" gradientUnits="userSpaceOnUse">
<stop stop-color="#1EC097"/>
<stop offset="1" stop-color="white" stop-opacity="0"/>
</linearGradient>
<linearGradient id="paint8_linear_1_865" x1="363.216" y1="24.7657" x2="112.684" y2="750.511" gradientUnits="userSpaceOnUse">
<stop stop-color="#1EC097"/>
<stop offset="1" stop-color="white" stop-opacity="0"/>
</linearGradient>
<linearGradient id="paint9_linear_1_865" x1="363.216" y1="24.7657" x2="112.684" y2="750.511" gradientUnits="userSpaceOnUse">
<stop stop-color="#1EC097"/>
<stop offset="1" stop-color="white" stop-opacity="0"/>
</linearGradient>
<linearGradient id="paint10_linear_1_865" x1="363.216" y1="24.7657" x2="112.684" y2="750.511" gradientUnits="userSpaceOnUse">
<stop stop-color="#1EC097"/>
<stop offset="1" stop-color="white" stop-opacity="0"/>
</linearGradient>
<linearGradient id="paint11_linear_1_865" x1="363.216" y1="24.7657" x2="112.684" y2="750.511" gradientUnits="userSpaceOnUse">
<stop stop-color="#1EC097"/>
<stop offset="1" stop-color="white" stop-opacity="0"/>
</linearGradient>
<linearGradient id="paint12_linear_1_865" x1="363.216" y1="24.7657" x2="112.684" y2="750.511" gradientUnits="userSpaceOnUse">
<stop stop-color="#1EC097"/>
<stop offset="1" stop-color="white" stop-opacity="0"/>
</linearGradient>
<linearGradient id="paint13_linear_1_865" x1="363.216" y1="24.7657" x2="112.684" y2="750.511" gradientUnits="userSpaceOnUse">
<stop stop-color="#1EC097"/>
<stop offset="1" stop-color="white" stop-opacity="0"/>
</linearGradient>
<linearGradient id="paint14_linear_1_865" x1="363.216" y1="24.7657" x2="112.684" y2="750.511" gradientUnits="userSpaceOnUse">
<stop stop-color="#1EC097"/>
<stop offset="1" stop-color="white" stop-opacity="0"/>
</linearGradient>
<linearGradient id="paint15_linear_1_865" x1="363.216" y1="24.7657" x2="112.684" y2="750.511" gradientUnits="userSpaceOnUse">
<stop stop-color="#1EC097"/>
<stop offset="1" stop-color="white" stop-opacity="0"/>
</linearGradient>
<linearGradient id="paint16_linear_1_865" x1="363.216" y1="24.7657" x2="112.684" y2="750.511" gradientUnits="userSpaceOnUse">
<stop stop-color="#1EC097"/>
<stop offset="1" stop-color="white" stop-opacity="0"/>
</linearGradient>
<linearGradient id="paint17_linear_1_865" x1="363.216" y1="24.7657" x2="112.684" y2="750.511" gradientUnits="userSpaceOnUse">
<stop stop-color="#1EC097"/>
<stop offset="1" stop-color="white" stop-opacity="0"/>
</linearGradient>
<linearGradient id="paint18_linear_1_865" x1="363.216" y1="24.7657" x2="112.684" y2="750.511" gradientUnits="userSpaceOnUse">
<stop stop-color="#1EC097"/>
<stop offset="1" stop-color="white" stop-opacity="0"/>
</linearGradient>
<linearGradient id="paint19_linear_1_865" x1="363.216" y1="24.7657" x2="112.684" y2="750.511" gradientUnits="userSpaceOnUse">
<stop stop-color="#1EC097"/>
<stop offset="1" stop-color="white" stop-opacity="0"/>
</linearGradient>
<linearGradient id="paint20_linear_1_865" x1="363.216" y1="24.7657" x2="112.684" y2="750.511" gradientUnits="userSpaceOnUse">
<stop stop-color="#1EC097"/>
<stop offset="1" stop-color="white" stop-opacity="0"/>
</linearGradient>
<linearGradient id="paint21_linear_1_865" x1="363.216" y1="24.7657" x2="112.684" y2="750.511" gradientUnits="userSpaceOnUse">
<stop stop-color="#1EC097"/>
<stop offset="1" stop-color="white" stop-opacity="0"/>
</linearGradient>
<linearGradient id="paint22_linear_1_865" x1="363.216" y1="24.7657" x2="112.684" y2="750.511" gradientUnits="userSpaceOnUse">
<stop stop-color="#1EC097"/>
<stop offset="1" stop-color="white" stop-opacity="0"/>
</linearGradient>
<linearGradient id="paint23_linear_1_865" x1="363.216" y1="24.7657" x2="112.684" y2="750.511" gradientUnits="userSpaceOnUse">
<stop stop-color="#1EC097"/>
<stop offset="1" stop-color="white" stop-opacity="0"/>
</linearGradient>
<linearGradient id="paint24_linear_1_865" x1="363.216" y1="24.7657" x2="112.684" y2="750.511" gradientUnits="userSpaceOnUse">
<stop stop-color="#1EC097"/>
<stop offset="1" stop-color="white" stop-opacity="0"/>
</linearGradient>
<linearGradient id="paint25_linear_1_865" x1="363.216" y1="24.7657" x2="112.684" y2="750.511" gradientUnits="userSpaceOnUse">
<stop stop-color="#1EC097"/>
<stop offset="1" stop-color="white" stop-opacity="0"/>
</linearGradient>
<linearGradient id="paint26_linear_1_865" x1="363.216" y1="24.7657" x2="112.684" y2="750.511" gradientUnits="userSpaceOnUse">
<stop stop-color="#1EC097"/>
<stop offset="1" stop-color="white" stop-opacity="0"/>
</linearGradient>
<linearGradient id="paint27_linear_1_865" x1="363.216" y1="24.7657" x2="112.684" y2="750.511" gradientUnits="userSpaceOnUse">
<stop stop-color="#1EC097"/>
<stop offset="1" stop-color="white" stop-opacity="0"/>
</linearGradient>
<linearGradient id="paint28_linear_1_865" x1="363.216" y1="24.7657" x2="112.684" y2="750.511" gradientUnits="userSpaceOnUse">
<stop stop-color="#1EC097"/>
<stop offset="1" stop-color="white" stop-opacity="0"/>
</linearGradient>
</defs>
</svg>
