<svg width="32" height="32" viewBox="0 0 32 32" fill="none" xmlns="http://www.w3.org/2000/svg">
<g clip-path="url(#clip0_1_874)">
<path fill-rule="evenodd" clip-rule="evenodd" d="M31.75 14.75C31.75 15.4167 31.75 16.0834 31.75 16.75C30.018 18.2313 28.3512 19.8146 26.75 21.5C26.276 21.7414 25.776 21.8248 25.25 21.75C25.4856 19.7488 26.4856 18.1654 28.25 17C18.7514 16.7501 9.25145 16.6667 -0.25 16.75C-0.25 16.0834 -0.25 15.4167 -0.25 14.75C9.25145 14.8333 18.7514 14.75 28.25 14.5C26.4856 13.3346 25.4856 11.7513 25.25 9.75002C25.776 9.67527 26.276 9.75862 26.75 10C28.3512 11.6855 30.018 13.2688 31.75 14.75Z" fill="white"/>
</g>
<defs>
<clipPath id="clip0_1_874">
<rect width="32" height="32" rx="5" fill="white"/>
</clipPath>
</defs>
</svg>
