<svg width="241" height="184" viewBox="0 0 241 184" fill="none" xmlns="http://www.w3.org/2000/svg">
<path d="M-96.4759 64.4791C-42.5842 61.2346 8.83786 75.9524 60.1922 85.8703C77.8385 89.2805 96.5597 92.1747 114.906 90.3011C144.242 87.3051 166.196 72.7659 179.951 57.4233C193.707 42.0807 201.853 25.1114 217.541 10.406C220.425 7.70071 223.692 5.04992 227.302 2.56752C233.817 -1.91212 241.93 3.28731 241.953 11.1948L242.421 172.861C242.439 178.936 237.528 183.874 231.453 183.89L-209.631 185.069C-214.05 185.081 -218.103 182.464 -219.552 178.289C-227.611 155.073 -226.439 130.856 -208.598 109.813C-187.604 85.0651 -143.734 67.3222 -96.4759 64.4791Z" fill="#D8C0FF"/>
</svg>
