<svg width="13" height="6" viewBox="0 0 13 6" fill="none" xmlns="http://www.w3.org/2000/svg">
<path fill-rule="evenodd" clip-rule="evenodd" d="M13 2.5022C13 2.83406 13 3.16594 13 3.4978C12.2964 4.23517 11.6193 5.02334 10.9688 5.86235C10.7762 5.98252 10.5731 6.02402 10.3594 5.9868C10.4551 4.99058 10.8614 4.20239 11.5781 3.62225C7.71934 3.49783 3.85996 3.45633 0 3.4978C0 3.16594 0 2.83406 0 2.5022C3.85996 2.54367 7.71934 2.50217 11.5781 2.37775C10.8614 1.79761 10.4551 1.00942 10.3594 0.0131953C10.5731 -0.0240153 10.7762 0.0174763 10.9688 0.137645C11.6193 0.976664 12.2964 1.76483 13 2.5022Z" fill="white"/>
</svg>
