<svg width="243" height="203" viewBox="0 0 243 203" fill="none" xmlns="http://www.w3.org/2000/svg">
<path d="M180.354 66.0594C151.709 62.4908 124.404 79.5891 97.1275 91.1626C87.7548 95.1419 77.8101 98.5307 68.0574 96.4307C52.4621 93.0726 40.7727 76.4056 33.4388 58.7888C26.1049 41.1719 21.7494 21.6655 13.39 4.788C9.59486 -2.87853 0.417725 0.48862 0.417725 9.04308V193.509C0.417725 199.584 5.34259 204.509 11.4177 204.509H235.49C240.752 204.509 245.309 200.787 246.108 195.586C250.165 169.173 249.395 141.731 240.01 117.893C228.815 89.4733 205.474 69.1864 180.354 66.0594Z" fill="#EBC2D1"/>
</svg>
